<?xml version="1.0" encoding="utf-8"?>
<!-- Generator: Adobe Illustrator 15.1.0, SVG Export Plug-In . SVG Version: 6.00 Build 0)  -->
<!DOCTYPE svg PUBLIC "-//W3C//DTD SVG 1.1//EN" "http://www.w3.org/Graphics/SVG/1.1/DTD/svg11.dtd">
<svg version="1.1" id="Layer_1" xmlns="http://www.w3.org/2000/svg" xmlns:xlink="http://www.w3.org/1999/xlink" x="0px" y="0px"
	 width="36.771px" height="33.171px" viewBox="25.598 297.008 36.771 33.171" enable-background="new 25.598 297.008 36.771 33.171"
	 xml:space="preserve">
<g id="XMLID_524_">
	<path id="XMLID_527_" fill="#FFFFFF" d="M53.062,320.727c0.082,1.858-1.197,3.262-3.139,3.179c0.041,0.867-0.206,1.652-0.826,2.271
		c-0.619,0.619-1.403,0.908-2.271,0.826c-0.041,0.372-0.041,0.743-0.165,1.074c-0.578,2.106-3.139,2.808-4.708,1.28
		c-1.114-1.073-2.188-2.188-3.262-3.262c-3.221-3.221-6.4-6.442-9.621-9.622c-1.899-1.899-3.098-4.129-3.387-6.813
		c-0.66-5.45,2.561-10.571,7.888-12.14c3.634-1.073,7.02-0.454,10.116,1.817c0.207,0.166,0.331,0.166,0.537,0
		c6.648-4.996,16.187-1.486,17.88,6.648c0.826,4.005-0.289,7.515-3.18,10.447c-1.073,1.073-2.147,2.106-3.18,3.179
		C55.002,320.355,54.176,320.81,53.062,320.727z M43.11,300.411c-0.206-0.165-0.33-0.248-0.454-0.372
		c-2.643-1.775-5.492-2.271-8.548-1.445c-4.707,1.28-7.846,5.822-7.268,10.86c0.289,2.395,1.321,4.418,3.056,6.111
		c1.941,1.899,3.841,3.84,5.74,5.74c2.354,2.354,4.707,4.707,7.061,7.061c0.413,0.413,0.909,0.661,1.487,0.578
		c0.66-0.124,1.114-0.496,1.321-1.115c0.206-0.619,0.041-1.197-0.413-1.651c-2.064-2.065-4.171-4.171-6.235-6.235
		c-0.083-0.083-0.206-0.207-0.289-0.331c-0.165-0.248-0.124-0.537,0.083-0.743c0.247-0.207,0.495-0.207,0.743-0.041
		c0.124,0.083,0.206,0.165,0.289,0.289c2.064,2.064,4.129,4.17,6.235,6.235c0.66,0.661,1.692,0.661,2.313,0
		c0.619-0.619,0.619-1.651-0.042-2.313c-0.289-0.33-0.619-0.619-0.908-0.908c-1.775-1.817-3.593-3.592-5.368-5.409
		c-0.165-0.166-0.289-0.455-0.289-0.661c0-0.165,0.248-0.413,0.413-0.454c0.206,0,0.537,0.083,0.702,0.248
		c2.023,2.023,4.047,4.046,6.111,6.07c0.124,0.124,0.247,0.248,0.371,0.372c0.867,0.743,2.188,0.372,2.561-0.702
		c0.248-0.702,0.041-1.28-0.454-1.776c-2.064-2.023-4.088-4.088-6.152-6.152c-0.455-0.455-0.537-0.785-0.248-1.074
		s0.619-0.248,1.073,0.207c2.064,2.064,4.088,4.088,6.153,6.152c0.495,0.496,1.073,0.702,1.733,0.496
		c1.198-0.372,1.569-1.817,0.661-2.725c-2.064-2.106-4.171-4.171-6.235-6.277c-0.454-0.454-0.867-0.826-1.527-0.991
		c-0.372-0.083-0.702-0.289-1.033-0.455c-0.536-0.33-1.073-0.702-1.61-1.073c-0.082,0.083-0.165,0.124-0.247,0.206
		c-1.032,1.033-2.023,2.106-3.139,3.056c-1.569,1.404-3.923,1.322-5.45-0.083c-0.867-0.826-1.156-1.982-0.083-3.014
		c2.519-2.478,4.996-4.997,7.516-7.474C42.821,300.576,42.945,300.493,43.11,300.411z M49.345,309.743
		c0,0.041-0.041,0.083-0.041,0.124c0.124,0.083,0.248,0.166,0.371,0.289c1.569,1.569,3.139,3.097,4.667,4.666
		c0.743,0.744,1.651,1.404,1.857,2.519c0.785-0.785,1.61-1.486,2.354-2.313c2.105-2.354,2.932-5.12,2.519-8.217
		c-0.702-4.831-4.955-8.589-9.869-8.589c-2.808-0.042-5.203,0.95-7.227,2.891c-1.197,1.156-2.354,2.354-3.551,3.551
		c-1.486,1.486-2.974,2.973-4.46,4.459c-0.33,0.331-0.371,0.62-0.041,0.991c0.082,0.124,0.206,0.248,0.33,0.33
		c1.197,0.909,2.808,0.826,3.923-0.289c1.115-1.115,2.229-2.229,3.345-3.345c0.413-0.413,0.661-0.372,1.074-0.041
		c0.619,0.496,1.279,1.032,1.981,1.404c1.569,0.826,2.974,0.619,4.295-0.578c0.371-0.33,0.702-0.372,0.949-0.083
		c0.248,0.248,0.207,0.619-0.124,0.95C51.079,309.082,50.253,309.537,49.345,309.743z"/>
	<path id="XMLID_526_" fill="#E83E74" d="M43.11,300.411c-0.165,0.124-0.289,0.166-0.371,0.289
		c-2.478,2.478-4.955,4.997-7.516,7.474c-1.073,1.032-0.784,2.23,0.083,3.014c1.527,1.404,3.881,1.487,5.45,0.083
		c1.073-0.991,2.106-2.023,3.139-3.056c0.082-0.083,0.165-0.166,0.247-0.207c0.537,0.372,1.074,0.743,1.61,1.073
		c0.331,0.207,0.661,0.413,1.033,0.455c0.66,0.124,1.073,0.537,1.527,0.991c2.064,2.106,4.171,4.171,6.235,6.277
		c0.908,0.908,0.578,2.354-0.661,2.725c-0.66,0.207-1.238,0-1.733-0.496c-2.023-2.064-4.089-4.088-6.153-6.152
		c-0.454-0.455-0.784-0.537-1.073-0.207c-0.289,0.289-0.248,0.619,0.248,1.074c2.064,2.064,4.088,4.088,6.152,6.152
		c0.495,0.496,0.702,1.115,0.454,1.776c-0.372,1.073-1.693,1.404-2.561,0.702c-0.124-0.124-0.247-0.248-0.371-0.372
		c-2.023-2.023-4.047-4.046-6.111-6.07c-0.165-0.166-0.454-0.289-0.702-0.248c-0.165,0-0.413,0.289-0.413,0.455
		c0,0.206,0.124,0.495,0.289,0.661c1.775,1.817,3.593,3.592,5.368,5.409c0.289,0.289,0.619,0.62,0.908,0.909
		c0.661,0.661,0.661,1.693,0.042,2.312c-0.661,0.661-1.652,0.661-2.313,0c-2.065-2.064-4.171-4.129-6.235-6.235
		c-0.083-0.083-0.165-0.207-0.289-0.289c-0.248-0.166-0.537-0.166-0.743,0.041c-0.248,0.207-0.248,0.496-0.083,0.743
		c0.083,0.124,0.206,0.207,0.289,0.331c2.064,2.064,4.171,4.17,6.235,6.235c0.454,0.454,0.619,1.032,0.413,1.652
		c-0.207,0.619-0.661,0.991-1.321,1.115c-0.578,0.083-1.074-0.124-1.487-0.578c-2.354-2.354-4.707-4.708-7.061-7.061
		c-1.899-1.899-3.841-3.84-5.74-5.74c-1.692-1.693-2.767-3.716-3.056-6.111c-0.578-5.038,2.561-9.58,7.268-10.86
		c3.056-0.826,5.905-0.33,8.507,1.445C42.78,300.122,42.904,300.246,43.11,300.411z"/>
	<path id="XMLID_525_" fill="#E83E74" d="M49.345,309.743c0.95-0.207,1.734-0.661,2.437-1.322c0.33-0.33,0.372-0.661,0.124-0.95
		s-0.619-0.248-0.95,0.083c-1.321,1.198-2.684,1.404-4.294,0.578c-0.702-0.372-1.321-0.908-1.982-1.404
		c-0.413-0.33-0.702-0.372-1.073,0.042c-1.115,1.115-2.23,2.229-3.345,3.345c-1.156,1.115-2.726,1.239-3.923,0.289
		c-0.124-0.083-0.248-0.207-0.331-0.331c-0.289-0.372-0.289-0.661,0.042-0.991c1.486-1.486,2.973-2.973,4.459-4.459
		c1.198-1.197,2.354-2.354,3.552-3.551c2.023-1.982,4.418-2.932,7.227-2.891c4.913,0.042,9.167,3.799,9.827,8.63
		c0.413,3.138-0.413,5.905-2.519,8.217c-0.702,0.785-1.528,1.528-2.354,2.313c-0.207-1.156-1.115-1.775-1.858-2.519
		c-1.528-1.569-3.097-3.097-4.666-4.666c-0.124-0.124-0.248-0.207-0.372-0.289C49.304,309.826,49.304,309.784,49.345,309.743z"/>
</g>
<rect id="XMLID_1_" x="61.073" y="303.879" fill="none" width="243.67" height="39.394"/>
<text id="XMLID_2_" transform="matrix(1 0 0 1 68.7654 319.0728)" fill="#FFFFFF" font-family="'ArialMT'" font-size="20.0046">Upoznavanje radi braka</text>
<rect id="XMLID_7_" x="201.469" y="303.879" fill="none" width="243.67" height="39.394"/>
<text id="XMLID_6_" transform="matrix(1 0 0 1 300.05 319.0728)" fill="#737373" font-family="'ArialMT'" font-size="20.0046">.com</text>
</svg>
